<svg width="1137" height="24" viewBox="0 0 1137 24" fill="none" xmlns="http://www.w3.org/2000/svg">
<path d="M5.914 18.216C5.23 18.216 4.564 18.15 3.916 18.018C3.28 17.898 2.698 17.73 2.17 17.514C1.654 17.298 1.216 17.064 0.856 16.812L2.044 14.562C2.44 14.838 2.86 15.078 3.304 15.282C3.76 15.474 4.234 15.624 4.726 15.732C5.218 15.828 5.71 15.876 6.202 15.876C6.742 15.876 7.204 15.816 7.588 15.696C7.984 15.576 8.284 15.408 8.488 15.192C8.704 14.976 8.812 14.712 8.812 14.4C8.812 14.112 8.698 13.878 8.47 13.698C8.242 13.518 7.942 13.368 7.57 13.248C7.21 13.116 6.808 12.99 6.364 12.87C5.92 12.75 5.47 12.612 5.014 12.456C4.57 12.288 4.162 12.084 3.79 11.844C3.43 11.592 3.136 11.274 2.908 10.89C2.68 10.506 2.566 10.026 2.566 9.45C2.566 8.586 2.8 7.836 3.268 7.2C3.748 6.564 4.42 6.072 5.284 5.724C6.148 5.364 7.162 5.184 8.326 5.184C9.178 5.184 9.982 5.28 10.738 5.472C11.494 5.652 12.142 5.916 12.682 6.264L11.584 8.496C11.104 8.172 10.57 7.932 9.982 7.776C9.394 7.608 8.788 7.524 8.164 7.524C7.6 7.524 7.114 7.59 6.706 7.722C6.31 7.854 6.004 8.04 5.788 8.28C5.584 8.508 5.482 8.772 5.482 9.072C5.482 9.372 5.59 9.618 5.806 9.81C6.034 9.99 6.334 10.146 6.706 10.278C7.078 10.398 7.486 10.518 7.93 10.638C8.374 10.758 8.818 10.896 9.262 11.052C9.706 11.208 10.114 11.406 10.486 11.646C10.858 11.886 11.158 12.192 11.386 12.564C11.614 12.924 11.728 13.38 11.728 13.932C11.728 14.796 11.488 15.552 11.008 16.2C10.528 16.836 9.85 17.334 8.974 17.694C8.11 18.042 7.09 18.216 5.914 18.216ZM12.4605 18L14.9805 5.4H17.9145L15.3945 18H12.4605ZM17.8268 18L20.3468 5.4H22.7228L26.3048 14.328L25.0448 14.31L32.0288 5.4H34.5308L32.0288 18H29.2928L30.9668 9.558H31.5248L25.9628 16.668H24.6668L21.6968 9.54L22.2368 9.594L20.5628 18H17.8268ZM34.4782 18L36.9982 5.4H42.0922C43.6642 5.4 44.8762 5.748 45.7282 6.444C46.5922 7.128 47.0242 8.088 47.0242 9.324C47.0242 10.38 46.7782 11.304 46.2862 12.096C45.7942 12.876 45.0862 13.476 44.1622 13.896C43.2502 14.316 42.1642 14.526 40.9042 14.526H36.8182L38.3662 13.194L37.4122 18H34.4782ZM38.2942 13.536L37.2682 12.15H41.0302C41.9902 12.15 42.7342 11.934 43.2622 11.502C43.8022 11.058 44.0722 10.416 44.0722 9.576C44.0722 8.964 43.8682 8.514 43.4602 8.226C43.0522 7.926 42.4762 7.776 41.7322 7.776H38.1862L39.7342 6.354L38.2942 13.536ZM46.946 18L49.466 5.4H52.4L50.348 15.624H56.666L56.18 18H46.946ZM59.1005 18L60.1265 12.816L60.4505 14.652L56.7425 5.4H59.6585L62.4845 12.474L60.7205 12.492L66.4265 5.4H69.4325L62.0525 14.67L63.0425 12.816L62.0165 18H59.1005ZM79.1522 18.216C78.1802 18.216 77.2742 18.06 76.4342 17.748C75.6062 17.424 74.8862 16.968 74.2742 16.38C73.6622 15.792 73.1822 15.102 72.8342 14.31C72.4982 13.518 72.3302 12.648 72.3302 11.7C72.3302 10.752 72.4982 9.882 72.8342 9.09C73.1822 8.298 73.6622 7.608 74.2742 7.02C74.8982 6.432 75.6242 5.982 76.4522 5.67C77.2802 5.346 78.1862 5.184 79.1702 5.184C80.2622 5.184 81.2462 5.376 82.1222 5.76C83.0102 6.132 83.7542 6.684 84.3542 7.416L82.4822 9.144C82.0502 8.652 81.5702 8.286 81.0422 8.046C80.5142 7.794 79.9382 7.668 79.3142 7.668C78.7262 7.668 78.1862 7.764 77.6942 7.956C77.2022 8.148 76.7762 8.424 76.4162 8.784C76.0562 9.144 75.7742 9.57 75.5702 10.062C75.3782 10.554 75.2822 11.1 75.2822 11.7C75.2822 12.3 75.3782 12.846 75.5702 13.338C75.7742 13.83 76.0562 14.256 76.4162 14.616C76.7762 14.976 77.2022 15.252 77.6942 15.444C78.1862 15.636 78.7262 15.732 79.3142 15.732C79.9382 15.732 80.5142 15.612 81.0422 15.372C81.5702 15.12 82.0502 14.742 82.4822 14.238L84.3542 15.966C83.7542 16.698 83.0102 17.256 82.1222 17.64C81.2462 18.024 80.2562 18.216 79.1522 18.216ZM94.4234 5.4H97.3394V18H94.4234V5.4ZM88.6994 18H85.7834V5.4H88.6994V18ZM94.6394 12.834H88.4834V10.368H94.6394V12.834ZM105.9 18.216C104.904 18.216 103.98 18.054 103.128 17.73C102.288 17.406 101.556 16.95 100.932 16.362C100.32 15.774 99.8405 15.084 99.4925 14.292C99.1565 13.5 98.9885 12.636 98.9885 11.7C98.9885 10.764 99.1565 9.9 99.4925 9.108C99.8405 8.316 100.326 7.626 100.95 7.038C101.574 6.45 102.306 5.994 103.146 5.67C103.986 5.346 104.898 5.184 105.882 5.184C106.878 5.184 107.79 5.346 108.618 5.67C109.458 5.994 110.184 6.45 110.796 7.038C111.42 7.626 111.906 8.316 112.254 9.108C112.602 9.888 112.776 10.752 112.776 11.7C112.776 12.636 112.602 13.506 112.254 14.31C111.906 15.102 111.42 15.792 110.796 16.38C110.184 16.956 109.458 17.406 108.618 17.73C107.79 18.054 106.884 18.216 105.9 18.216ZM105.882 15.732C106.446 15.732 106.962 15.636 107.43 15.444C107.91 15.252 108.33 14.976 108.69 14.616C109.05 14.256 109.326 13.83 109.518 13.338C109.722 12.846 109.824 12.3 109.824 11.7C109.824 11.1 109.722 10.554 109.518 10.062C109.326 9.57 109.05 9.144 108.69 8.784C108.342 8.424 107.928 8.148 107.448 7.956C106.968 7.764 106.446 7.668 105.882 7.668C105.318 7.668 104.796 7.764 104.316 7.956C103.848 8.148 103.434 8.424 103.074 8.784C102.714 9.144 102.432 9.57 102.228 10.062C102.036 10.554 101.94 11.1 101.94 11.7C101.94 12.288 102.036 12.834 102.228 13.338C102.432 13.83 102.708 14.256 103.056 14.616C103.416 14.976 103.836 15.252 104.316 15.444C104.796 15.636 105.318 15.732 105.882 15.732ZM120.458 18.216C119.486 18.216 118.58 18.06 117.74 17.748C116.912 17.424 116.192 16.968 115.58 16.38C114.968 15.792 114.488 15.102 114.14 14.31C113.804 13.518 113.636 12.648 113.636 11.7C113.636 10.752 113.804 9.882 114.14 9.09C114.488 8.298 114.968 7.608 115.58 7.02C116.204 6.432 116.93 5.982 117.758 5.67C118.586 5.346 119.492 5.184 120.476 5.184C121.568 5.184 122.552 5.376 123.428 5.76C124.316 6.132 125.06 6.684 125.66 7.416L123.788 9.144C123.356 8.652 122.876 8.286 122.348 8.046C121.82 7.794 121.244 7.668 120.62 7.668C120.032 7.668 119.492 7.764 119 7.956C118.508 8.148 118.082 8.424 117.722 8.784C117.362 9.144 117.08 9.57 116.876 10.062C116.684 10.554 116.588 11.1 116.588 11.7C116.588 12.3 116.684 12.846 116.876 13.338C117.08 13.83 117.362 14.256 117.722 14.616C118.082 14.976 118.508 15.252 119 15.444C119.492 15.636 120.032 15.732 120.62 15.732C121.244 15.732 121.82 15.612 122.348 15.372C122.876 15.12 123.356 14.742 123.788 14.238L125.66 15.966C125.06 16.698 124.316 17.256 123.428 17.64C122.552 18.024 121.562 18.216 120.458 18.216ZM132.945 18.216C131.949 18.216 131.025 18.054 130.173 17.73C129.333 17.406 128.601 16.95 127.977 16.362C127.365 15.774 126.885 15.084 126.537 14.292C126.201 13.5 126.033 12.636 126.033 11.7C126.033 10.764 126.201 9.9 126.537 9.108C126.885 8.316 127.371 7.626 127.995 7.038C128.619 6.45 129.351 5.994 130.191 5.67C131.031 5.346 131.943 5.184 132.927 5.184C133.923 5.184 134.835 5.346 135.663 5.67C136.503 5.994 137.229 6.45 137.841 7.038C138.465 7.626 138.951 8.316 139.299 9.108C139.647 9.888 139.821 10.752 139.821 11.7C139.821 12.636 139.647 13.506 139.299 14.31C138.951 15.102 138.465 15.792 137.841 16.38C137.229 16.956 136.503 17.406 135.663 17.73C134.835 18.054 133.929 18.216 132.945 18.216ZM132.927 15.732C133.491 15.732 134.007 15.636 134.475 15.444C134.955 15.252 135.375 14.976 135.735 14.616C136.095 14.256 136.371 13.83 136.563 13.338C136.767 12.846 136.869 12.3 136.869 11.7C136.869 11.1 136.767 10.554 136.563 10.062C136.371 9.57 136.095 9.144 135.735 8.784C135.387 8.424 134.973 8.148 134.493 7.956C134.013 7.764 133.491 7.668 132.927 7.668C132.363 7.668 131.841 7.764 131.361 7.956C130.893 8.148 130.479 8.424 130.119 8.784C129.759 9.144 129.477 9.57 129.273 10.062C129.081 10.554 128.985 11.1 128.985 11.7C128.985 12.288 129.081 12.834 129.273 13.338C129.477 13.83 129.753 14.256 130.101 14.616C130.461 14.976 130.881 15.252 131.361 15.444C131.841 15.636 132.363 15.732 132.927 15.732ZM141.473 18V5.4H144.389V15.624H150.707V18H141.473ZM150.211 18L155.827 5.4H158.707L164.341 18H161.281L156.673 6.876H157.825L153.199 18H150.211ZM153.019 15.3L153.793 13.086H160.273L161.065 15.3H153.019ZM167.085 18V7.776H163.053V5.4H174.033V7.776H170.001V18H167.085ZM177.744 10.476H183.81V12.744H177.744V10.476ZM177.96 15.66H184.818V18H175.062V5.4H184.584V7.74H177.96V15.66Z" fill="#111111"/>
<path d="M192.958 15.0568L201.041 1.9886L201.521 1.48303L207.697 5.6014L207.74 8.08665L209.247 10.5463L202.587 21.1038L192.958 15.0568Z" fill="#FCF1E0"/>
<path d="M206.226 17.9097L195.587 11.2616M198.521 6.44905L209.16 13.0971M197.972 19.3982L206.774 4.96051M210.382 11.0919C208.102 9.6673 207.207 8.55395 208.674 6.14767L201.455 1.63647L192.653 16.0742L203.292 22.7223L210.382 11.0919Z" stroke="#FD9222" stroke-width="2" stroke-linecap="round" stroke-linejoin="round"/>
<path d="M410.498 7.2H411.898V17H410.498V7.2ZM404.87 17H403.47V7.2H404.87V17ZM410.624 12.632H404.73V11.414H410.624V12.632ZM417.533 17.084C416.787 17.084 416.124 16.9207 415.545 16.594C414.967 16.2673 414.509 15.8193 414.173 15.25C413.837 14.6713 413.669 14.018 413.669 13.29C413.669 12.5527 413.837 11.8993 414.173 11.33C414.509 10.7607 414.967 10.3173 415.545 10C416.124 9.67333 416.787 9.51 417.533 9.51C418.271 9.51 418.929 9.67333 419.507 10C420.095 10.3173 420.553 10.7607 420.879 11.33C421.215 11.89 421.383 12.5433 421.383 13.29C421.383 14.0273 421.215 14.6807 420.879 15.25C420.553 15.8193 420.095 16.2673 419.507 16.594C418.929 16.9207 418.271 17.084 417.533 17.084ZM417.533 15.908C418.009 15.908 418.434 15.8007 418.807 15.586C419.19 15.3713 419.489 15.068 419.703 14.676C419.918 14.2747 420.025 13.8127 420.025 13.29C420.025 12.758 419.918 12.3007 419.703 11.918C419.489 11.526 419.19 11.2227 418.807 11.008C418.434 10.7933 418.009 10.686 417.533 10.686C417.057 10.686 416.633 10.7933 416.259 11.008C415.886 11.2227 415.587 11.526 415.363 11.918C415.139 12.3007 415.027 12.758 415.027 13.29C415.027 13.8127 415.139 14.2747 415.363 14.676C415.587 15.068 415.886 15.3713 416.259 15.586C416.633 15.8007 417.057 15.908 417.533 15.908ZM432.244 9.51C432.841 9.51 433.369 9.62667 433.826 9.86C434.283 10.0933 434.638 10.448 434.89 10.924C435.151 11.4 435.282 12.002 435.282 12.73V17H433.938V12.884C433.938 12.1653 433.77 11.624 433.434 11.26C433.098 10.896 432.627 10.714 432.02 10.714C431.572 10.714 431.18 10.8073 430.844 10.994C430.508 11.1807 430.247 11.456 430.06 11.82C429.883 12.184 429.794 12.6367 429.794 13.178V17H428.45V12.884C428.45 12.1653 428.282 11.624 427.946 11.26C427.619 10.896 427.148 10.714 426.532 10.714C426.093 10.714 425.706 10.8073 425.37 10.994C425.034 11.1807 424.773 11.456 424.586 11.82C424.399 12.184 424.306 12.6367 424.306 13.178V17H422.962V9.58H424.25V11.554L424.04 11.05C424.273 10.5647 424.633 10.1867 425.118 9.916C425.603 9.64533 426.168 9.51 426.812 9.51C427.521 9.51 428.133 9.68733 428.646 10.042C429.159 10.3873 429.495 10.9147 429.654 11.624L429.108 11.4C429.332 10.8307 429.724 10.3733 430.284 10.028C430.844 9.68267 431.497 9.51 432.244 9.51ZM440.779 17.084C439.986 17.084 439.286 16.9207 438.679 16.594C438.082 16.2673 437.615 15.8193 437.279 15.25C436.952 14.6807 436.789 14.0273 436.789 13.29C436.789 12.5527 436.948 11.8993 437.265 11.33C437.592 10.7607 438.035 10.3173 438.595 10C439.164 9.67333 439.804 9.51 440.513 9.51C441.232 9.51 441.866 9.66867 442.417 9.986C442.968 10.3033 443.397 10.7513 443.705 11.33C444.022 11.8993 444.181 12.5667 444.181 13.332C444.181 13.388 444.176 13.4533 444.167 13.528C444.167 13.6027 444.162 13.6727 444.153 13.738H437.839V12.772H443.453L442.907 13.108C442.916 12.632 442.818 12.2073 442.613 11.834C442.408 11.4607 442.123 11.1713 441.759 10.966C441.404 10.7513 440.989 10.644 440.513 10.644C440.046 10.644 439.631 10.7513 439.267 10.966C438.903 11.1713 438.618 11.4653 438.413 11.848C438.208 12.2213 438.105 12.6507 438.105 13.136V13.36C438.105 13.8547 438.217 14.298 438.441 14.69C438.674 15.0727 438.996 15.3713 439.407 15.586C439.818 15.8007 440.289 15.908 440.821 15.908C441.26 15.908 441.656 15.8333 442.011 15.684C442.375 15.5347 442.692 15.3107 442.963 15.012L443.705 15.88C443.369 16.272 442.949 16.5707 442.445 16.776C441.95 16.9813 441.395 17.084 440.779 17.084Z" fill="#111111"/>
<path d="M477.498 7.2H478.898V17H477.498V7.2ZM471.87 17H470.47V7.2H471.87V17ZM477.624 12.632H471.73V11.414H477.624V12.632ZM484.533 17.084C483.787 17.084 483.124 16.9207 482.545 16.594C481.967 16.2673 481.509 15.8193 481.173 15.25C480.837 14.6713 480.669 14.018 480.669 13.29C480.669 12.5527 480.837 11.8993 481.173 11.33C481.509 10.7607 481.967 10.3173 482.545 10C483.124 9.67333 483.787 9.51 484.533 9.51C485.271 9.51 485.929 9.67333 486.507 10C487.095 10.3173 487.553 10.7607 487.879 11.33C488.215 11.89 488.383 12.5433 488.383 13.29C488.383 14.0273 488.215 14.6807 487.879 15.25C487.553 15.8193 487.095 16.2673 486.507 16.594C485.929 16.9207 485.271 17.084 484.533 17.084ZM484.533 15.908C485.009 15.908 485.434 15.8007 485.807 15.586C486.19 15.3713 486.489 15.068 486.703 14.676C486.918 14.2747 487.025 13.8127 487.025 13.29C487.025 12.758 486.918 12.3007 486.703 11.918C486.489 11.526 486.19 11.2227 485.807 11.008C485.434 10.7933 485.009 10.686 484.533 10.686C484.057 10.686 483.633 10.7933 483.259 11.008C482.886 11.2227 482.587 11.526 482.363 11.918C482.139 12.3007 482.027 12.758 482.027 13.29C482.027 13.8127 482.139 14.2747 482.363 14.676C482.587 15.068 482.886 15.3713 483.259 15.586C483.633 15.8007 484.057 15.908 484.533 15.908ZM491.325 17L488.567 9.58H489.841L492.291 16.3H491.689L494.237 9.58H495.371L497.863 16.3H497.275L499.781 9.58H500.985L498.213 17H496.925L494.587 10.868H494.979L492.613 17H491.325ZM505.549 17V9.58H506.893V17H505.549ZM506.221 8.152C505.959 8.152 505.74 8.068 505.563 7.9C505.395 7.732 505.311 7.52667 505.311 7.284C505.311 7.032 505.395 6.822 505.563 6.654C505.74 6.486 505.959 6.402 506.221 6.402C506.482 6.402 506.697 6.486 506.865 6.654C507.042 6.81267 507.131 7.01333 507.131 7.256C507.131 7.508 507.047 7.72267 506.879 7.9C506.711 8.068 506.491 8.152 506.221 8.152ZM511.727 17.084C510.98 17.084 510.401 16.8833 509.991 16.482C509.58 16.0807 509.375 15.5067 509.375 14.76V7.956H510.719V14.704C510.719 15.1053 510.817 15.4133 511.013 15.628C511.218 15.8427 511.507 15.95 511.881 15.95C512.301 15.95 512.651 15.8333 512.931 15.6L513.351 16.566C513.145 16.7433 512.898 16.874 512.609 16.958C512.329 17.042 512.035 17.084 511.727 17.084ZM508.115 10.686V9.58H512.847V10.686H508.115ZM514.164 10.434L514.864 7.592L515.046 8.404C514.775 8.404 514.546 8.32 514.36 8.152C514.182 7.984 514.094 7.76 514.094 7.48C514.094 7.19067 514.182 6.962 514.36 6.794C514.546 6.61667 514.77 6.528 515.032 6.528C515.302 6.528 515.522 6.62133 515.69 6.808C515.858 6.98533 515.942 7.20933 515.942 7.48C515.942 7.564 515.937 7.65267 515.928 7.746C515.918 7.83 515.895 7.928 515.858 8.04C515.83 8.152 515.783 8.29667 515.718 8.474L515.046 10.434H514.164ZM519.483 17.084C518.867 17.084 518.279 17 517.719 16.832C517.168 16.664 516.734 16.4587 516.417 16.216L516.977 15.152C517.294 15.3667 517.686 15.5487 518.153 15.698C518.62 15.8473 519.096 15.922 519.581 15.922C520.206 15.922 520.654 15.8333 520.925 15.656C521.205 15.4787 521.345 15.2313 521.345 14.914C521.345 14.6807 521.261 14.4987 521.093 14.368C520.925 14.2373 520.701 14.1393 520.421 14.074C520.15 14.0087 519.847 13.9527 519.511 13.906C519.175 13.85 518.839 13.7847 518.503 13.71C518.167 13.626 517.859 13.514 517.579 13.374C517.299 13.2247 517.075 13.024 516.907 12.772C516.739 12.5107 516.655 12.1653 516.655 11.736C516.655 11.288 516.781 10.896 517.033 10.56C517.285 10.224 517.64 9.96733 518.097 9.79C518.564 9.60333 519.114 9.51 519.749 9.51C520.234 9.51 520.724 9.57067 521.219 9.692C521.723 9.804 522.134 9.96733 522.451 10.182L521.877 11.246C521.541 11.022 521.191 10.868 520.827 10.784C520.463 10.7 520.099 10.658 519.735 10.658C519.147 10.658 518.708 10.756 518.419 10.952C518.13 11.1387 517.985 11.3813 517.985 11.68C517.985 11.932 518.069 12.128 518.237 12.268C518.414 12.3987 518.638 12.5013 518.909 12.576C519.189 12.6507 519.497 12.716 519.833 12.772C520.169 12.8187 520.505 12.884 520.841 12.968C521.177 13.0427 521.48 13.15 521.751 13.29C522.031 13.43 522.255 13.626 522.423 13.878C522.6 14.13 522.689 14.466 522.689 14.886C522.689 15.334 522.558 15.7213 522.297 16.048C522.036 16.3747 521.667 16.6313 521.191 16.818C520.715 16.9953 520.146 17.084 519.483 17.084ZM536.85 9.51C537.448 9.51 537.975 9.62667 538.432 9.86C538.89 10.0933 539.244 10.448 539.496 10.924C539.758 11.4 539.888 12.002 539.888 12.73V17H538.544V12.884C538.544 12.1653 538.376 11.624 538.04 11.26C537.704 10.896 537.233 10.714 536.626 10.714C536.178 10.714 535.786 10.8073 535.45 10.994C535.114 11.1807 534.853 11.456 534.666 11.82C534.489 12.184 534.4 12.6367 534.4 13.178V17H533.056V12.884C533.056 12.1653 532.888 11.624 532.552 11.26C532.226 10.896 531.754 10.714 531.138 10.714C530.7 10.714 530.312 10.8073 529.976 10.994C529.64 11.1807 529.379 11.456 529.192 11.82C529.006 12.184 528.912 12.6367 528.912 13.178V17H527.568V9.58H528.856V11.554L528.646 11.05C528.88 10.5647 529.239 10.1867 529.724 9.916C530.21 9.64533 530.774 9.51 531.418 9.51C532.128 9.51 532.739 9.68733 533.252 10.042C533.766 10.3873 534.102 10.9147 534.26 11.624L533.714 11.4C533.938 10.8307 534.33 10.3733 534.89 10.028C535.45 9.68267 536.104 9.51 536.85 9.51ZM546.687 17V15.432L546.617 15.138V12.464C546.617 11.8947 546.449 11.456 546.113 11.148C545.787 10.8307 545.292 10.672 544.629 10.672C544.191 10.672 543.761 10.7467 543.341 10.896C542.921 11.036 542.567 11.2273 542.277 11.47L541.717 10.462C542.1 10.154 542.557 9.92067 543.089 9.762C543.631 9.594 544.195 9.51 544.783 9.51C545.801 9.51 546.585 9.75733 547.135 10.252C547.686 10.7467 547.961 11.5027 547.961 12.52V17H546.687ZM544.251 17.084C543.701 17.084 543.215 16.9907 542.795 16.804C542.385 16.6173 542.067 16.3607 541.843 16.034C541.619 15.698 541.507 15.32 541.507 14.9C541.507 14.4987 541.601 14.1347 541.787 13.808C541.983 13.4813 542.296 13.22 542.725 13.024C543.164 12.828 543.752 12.73 544.489 12.73H546.841V13.696H544.545C543.873 13.696 543.421 13.808 543.187 14.032C542.954 14.256 542.837 14.5267 542.837 14.844C542.837 15.208 542.982 15.502 543.271 15.726C543.561 15.9407 543.962 16.048 544.475 16.048C544.979 16.048 545.418 15.936 545.791 15.712C546.174 15.488 546.449 15.1613 546.617 14.732L546.883 15.656C546.706 16.0947 546.393 16.4447 545.945 16.706C545.497 16.958 544.933 17.084 544.251 17.084ZM553.235 17.084C552.516 17.084 551.872 16.9253 551.303 16.608C550.743 16.2907 550.299 15.8473 549.973 15.278C549.646 14.7087 549.483 14.046 549.483 13.29C549.483 12.534 549.646 11.876 549.973 11.316C550.299 10.7467 550.743 10.3033 551.303 9.986C551.872 9.66867 552.516 9.51 553.235 9.51C553.86 9.51 554.425 9.65 554.929 9.93C555.433 10.21 555.834 10.63 556.133 11.19C556.441 11.75 556.595 12.45 556.595 13.29C556.595 14.13 556.445 14.83 556.147 15.39C555.857 15.95 555.461 16.3747 554.957 16.664C554.453 16.944 553.879 17.084 553.235 17.084ZM553.347 15.908C553.813 15.908 554.233 15.8007 554.607 15.586C554.989 15.3713 555.288 15.068 555.503 14.676C555.727 14.2747 555.839 13.8127 555.839 13.29C555.839 12.758 555.727 12.3007 555.503 11.918C555.288 11.526 554.989 11.2227 554.607 11.008C554.233 10.7933 553.813 10.686 553.347 10.686C552.871 10.686 552.446 10.7933 552.073 11.008C551.699 11.2227 551.401 11.526 551.177 11.918C550.953 12.3007 550.841 12.758 550.841 13.29C550.841 13.8127 550.953 14.2747 551.177 14.676C551.401 15.068 551.699 15.3713 552.073 15.586C552.446 15.8007 552.871 15.908 553.347 15.908ZM555.881 17V14.998L555.965 13.276L555.825 11.554V6.612H557.169V17H555.881ZM562.736 17.084C561.942 17.084 561.242 16.9207 560.636 16.594C560.038 16.2673 559.572 15.8193 559.236 15.25C558.909 14.6807 558.746 14.0273 558.746 13.29C558.746 12.5527 558.904 11.8993 559.222 11.33C559.548 10.7607 559.992 10.3173 560.552 10C561.121 9.67333 561.76 9.51 562.47 9.51C563.188 9.51 563.823 9.66867 564.374 9.986C564.924 10.3033 565.354 10.7513 565.662 11.33C565.979 11.8993 566.138 12.5667 566.138 13.332C566.138 13.388 566.133 13.4533 566.124 13.528C566.124 13.6027 566.119 13.6727 566.11 13.738H559.796V12.772H565.41L564.864 13.108C564.873 12.632 564.775 12.2073 564.57 11.834C564.364 11.4607 564.08 11.1713 563.716 10.966C563.361 10.7513 562.946 10.644 562.47 10.644C562.003 10.644 561.588 10.7513 561.224 10.966C560.86 11.1713 560.575 11.4653 560.37 11.848C560.164 12.2213 560.062 12.6507 560.062 13.136V13.36C560.062 13.8547 560.174 14.298 560.398 14.69C560.631 15.0727 560.953 15.3713 561.364 15.586C561.774 15.8007 562.246 15.908 562.778 15.908C563.216 15.908 563.613 15.8333 563.968 15.684C564.332 15.5347 564.649 15.3107 564.92 15.012L565.662 15.88C565.326 16.272 564.906 16.5707 564.402 16.776C563.907 16.9813 563.352 17.084 562.736 17.084ZM568.986 13.906C568.986 13.542 569.046 13.2247 569.168 12.954C569.289 12.6833 569.438 12.4407 569.616 12.226C569.802 12.0113 570.003 11.8153 570.218 11.638C570.432 11.4513 570.633 11.2693 570.82 11.092C571.006 10.9053 571.156 10.7093 571.268 10.504C571.389 10.2987 571.45 10.0607 571.45 9.79C571.45 9.342 571.272 8.978 570.918 8.698C570.563 8.418 570.073 8.278 569.448 8.278C568.888 8.278 568.402 8.37133 567.992 8.558C567.581 8.74467 567.231 9.02 566.942 9.384L565.92 8.656C566.312 8.16133 566.811 7.77867 567.418 7.508C568.024 7.228 568.734 7.088 569.546 7.088C570.218 7.088 570.801 7.19067 571.296 7.396C571.79 7.592 572.173 7.87667 572.444 8.25C572.724 8.614 572.864 9.05733 572.864 9.58C572.864 9.972 572.803 10.308 572.682 10.588C572.56 10.868 572.406 11.1153 572.22 11.33C572.033 11.5447 571.832 11.7453 571.618 11.932C571.412 12.1187 571.216 12.3053 571.03 12.492C570.843 12.6787 570.689 12.884 570.568 13.108C570.446 13.332 570.386 13.598 570.386 13.906H568.986ZM569.7 17.084C569.438 17.084 569.219 16.9953 569.042 16.818C568.874 16.6407 568.79 16.4307 568.79 16.188C568.79 15.9267 568.874 15.712 569.042 15.544C569.219 15.376 569.438 15.292 569.7 15.292C569.961 15.292 570.176 15.376 570.344 15.544C570.512 15.712 570.596 15.9267 570.596 16.188C570.596 16.4307 570.512 16.6407 570.344 16.818C570.176 16.9953 569.961 17.084 569.7 17.084Z" fill="#111111"/>
<path d="M603.894 17.112C603.147 17.112 602.452 16.986 601.808 16.734C601.173 16.482 600.623 16.132 600.156 15.684C599.689 15.2267 599.325 14.6947 599.064 14.088C598.803 13.4813 598.672 12.8187 598.672 12.1C598.672 11.3813 598.803 10.7187 599.064 10.112C599.325 9.50533 599.689 8.978 600.156 8.53C600.623 8.07267 601.173 7.718 601.808 7.466C602.443 7.214 603.138 7.088 603.894 7.088C604.641 7.088 605.327 7.214 605.952 7.466C606.587 7.70867 607.137 8.05867 607.604 8.516C608.08 8.964 608.444 9.49133 608.696 10.098C608.957 10.7047 609.088 11.372 609.088 12.1C609.088 12.828 608.957 13.4953 608.696 14.102C608.444 14.7087 608.08 15.2407 607.604 15.698C607.137 16.146 606.587 16.496 605.952 16.748C605.327 16.9907 604.641 17.112 603.894 17.112ZM603.894 15.866C604.435 15.866 604.935 15.7727 605.392 15.586C605.859 15.3993 606.26 15.138 606.596 14.802C606.941 14.4567 607.207 14.0553 607.394 13.598C607.59 13.1407 607.688 12.6413 607.688 12.1C607.688 11.5587 607.59 11.0593 607.394 10.602C607.207 10.1447 606.941 9.748 606.596 9.412C606.26 9.06667 605.859 8.80067 605.392 8.614C604.935 8.42733 604.435 8.334 603.894 8.334C603.343 8.334 602.835 8.42733 602.368 8.614C601.911 8.80067 601.509 9.06667 601.164 9.412C600.819 9.748 600.548 10.1447 600.352 10.602C600.165 11.0593 600.072 11.5587 600.072 12.1C600.072 12.6413 600.165 13.1407 600.352 13.598C600.548 14.0553 600.819 14.4567 601.164 14.802C601.509 15.138 601.911 15.3993 602.368 15.586C602.835 15.7727 603.343 15.866 603.894 15.866ZM613.874 17.084C613.239 17.084 612.679 16.9673 612.194 16.734C611.718 16.5007 611.344 16.146 611.074 15.67C610.812 15.1847 610.682 14.578 610.682 13.85V9.58H612.026V13.696C612.026 14.424 612.198 14.97 612.544 15.334C612.898 15.698 613.393 15.88 614.028 15.88C614.494 15.88 614.9 15.7867 615.246 15.6C615.591 15.404 615.857 15.124 616.044 14.76C616.23 14.3867 616.324 13.9387 616.324 13.416V9.58H617.668V17H616.394V14.998L616.604 15.53C616.361 16.0247 615.997 16.4073 615.512 16.678C615.026 16.9487 614.48 17.084 613.874 17.084ZM619.946 17V9.58H621.234V11.596L621.108 11.092C621.314 10.5787 621.659 10.1867 622.144 9.916C622.63 9.64533 623.227 9.51 623.936 9.51V10.812C623.88 10.8027 623.824 10.798 623.768 10.798C623.722 10.798 623.675 10.798 623.628 10.798C622.91 10.798 622.34 11.0127 621.92 11.442C621.5 11.8713 621.29 12.492 621.29 13.304V17H619.946ZM632.822 17.084C632.206 17.084 631.642 16.944 631.128 16.664C630.624 16.3747 630.218 15.95 629.91 15.39C629.612 14.83 629.462 14.13 629.462 13.29C629.462 12.45 629.607 11.75 629.896 11.19C630.195 10.63 630.596 10.21 631.1 9.93C631.614 9.65 632.188 9.51 632.822 9.51C633.55 9.51 634.194 9.66867 634.754 9.986C635.314 10.3033 635.758 10.7467 636.084 11.316C636.411 11.876 636.574 12.534 636.574 13.29C636.574 14.046 636.411 14.7087 636.084 15.278C635.758 15.8473 635.314 16.2907 634.754 16.608C634.194 16.9253 633.55 17.084 632.822 17.084ZM628.888 19.716V9.58H630.176V11.582L630.092 13.304L630.232 15.026V19.716H628.888ZM632.71 15.908C633.186 15.908 633.611 15.8007 633.984 15.586C634.367 15.3713 634.666 15.068 634.88 14.676C635.104 14.2747 635.216 13.8127 635.216 13.29C635.216 12.758 635.104 12.3007 634.88 11.918C634.666 11.526 634.367 11.2227 633.984 11.008C633.611 10.7933 633.186 10.686 632.71 10.686C632.244 10.686 631.819 10.7933 631.436 11.008C631.063 11.2227 630.764 11.526 630.54 11.918C630.326 12.3007 630.218 12.758 630.218 13.29C630.218 13.8127 630.326 14.2747 630.54 14.676C630.764 15.068 631.063 15.3713 631.436 15.586C631.819 15.8007 632.244 15.908 632.71 15.908ZM638.151 17V9.58H639.439V11.596L639.313 11.092C639.519 10.5787 639.864 10.1867 640.349 9.916C640.835 9.64533 641.432 9.51 642.141 9.51V10.812C642.085 10.8027 642.029 10.798 641.973 10.798C641.927 10.798 641.88 10.798 641.833 10.798C641.115 10.798 640.545 11.0127 640.125 11.442C639.705 11.8713 639.495 12.492 639.495 13.304V17H638.151ZM646.627 17.084C645.881 17.084 645.218 16.9207 644.639 16.594C644.061 16.2673 643.603 15.8193 643.267 15.25C642.931 14.6713 642.763 14.018 642.763 13.29C642.763 12.5527 642.931 11.8993 643.267 11.33C643.603 10.7607 644.061 10.3173 644.639 10C645.218 9.67333 645.881 9.51 646.627 9.51C647.365 9.51 648.023 9.67333 648.601 10C649.189 10.3173 649.647 10.7607 649.973 11.33C650.309 11.89 650.477 12.5433 650.477 13.29C650.477 14.0273 650.309 14.6807 649.973 15.25C649.647 15.8193 649.189 16.2673 648.601 16.594C648.023 16.9207 647.365 17.084 646.627 17.084ZM646.627 15.908C647.103 15.908 647.528 15.8007 647.901 15.586C648.284 15.3713 648.583 15.068 648.797 14.676C649.012 14.2747 649.119 13.8127 649.119 13.29C649.119 12.758 649.012 12.3007 648.797 11.918C648.583 11.526 648.284 11.2227 647.901 11.008C647.528 10.7933 647.103 10.686 646.627 10.686C646.151 10.686 645.727 10.7933 645.353 11.008C644.98 11.2227 644.681 11.526 644.457 11.918C644.233 12.3007 644.121 12.758 644.121 13.29C644.121 13.8127 644.233 14.2747 644.457 14.676C644.681 15.068 644.98 15.3713 645.353 15.586C645.727 15.8007 646.151 15.908 646.627 15.908ZM655.122 17.084C654.404 17.084 653.76 16.9253 653.19 16.608C652.63 16.2907 652.187 15.8473 651.86 15.278C651.534 14.7087 651.37 14.046 651.37 13.29C651.37 12.534 651.534 11.876 651.86 11.316C652.187 10.7467 652.63 10.3033 653.19 9.986C653.76 9.66867 654.404 9.51 655.122 9.51C655.748 9.51 656.312 9.65 656.816 9.93C657.32 10.21 657.722 10.63 658.02 11.19C658.328 11.75 658.482 12.45 658.482 13.29C658.482 14.13 658.333 14.83 658.034 15.39C657.745 15.95 657.348 16.3747 656.844 16.664C656.34 16.944 655.766 17.084 655.122 17.084ZM655.234 15.908C655.701 15.908 656.121 15.8007 656.494 15.586C656.877 15.3713 657.176 15.068 657.39 14.676C657.614 14.2747 657.726 13.8127 657.726 13.29C657.726 12.758 657.614 12.3007 657.39 11.918C657.176 11.526 656.877 11.2227 656.494 11.008C656.121 10.7933 655.701 10.686 655.234 10.686C654.758 10.686 654.334 10.7933 653.96 11.008C653.587 11.2227 653.288 11.526 653.064 11.918C652.84 12.3007 652.728 12.758 652.728 13.29C652.728 13.8127 652.84 14.2747 653.064 14.676C653.288 15.068 653.587 15.3713 653.96 15.586C654.334 15.8007 654.758 15.908 655.234 15.908ZM657.768 17V14.998L657.852 13.276L657.712 11.554V6.612H659.056V17H657.768ZM664.441 17.084C663.806 17.084 663.246 16.9673 662.761 16.734C662.285 16.5007 661.912 16.146 661.641 15.67C661.38 15.1847 661.249 14.578 661.249 13.85V9.58H662.593V13.696C662.593 14.424 662.766 14.97 663.111 15.334C663.466 15.698 663.96 15.88 664.595 15.88C665.062 15.88 665.468 15.7867 665.813 15.6C666.158 15.404 666.424 15.124 666.611 14.76C666.798 14.3867 666.891 13.9387 666.891 13.416V9.58H668.235V17H666.961V14.998L667.171 15.53C666.928 16.0247 666.564 16.4073 666.079 16.678C665.594 16.9487 665.048 17.084 664.441 17.084ZM673.748 17.084C672.992 17.084 672.315 16.9207 671.718 16.594C671.13 16.2673 670.668 15.8193 670.332 15.25C669.996 14.6807 669.828 14.0273 669.828 13.29C669.828 12.5527 669.996 11.8993 670.332 11.33C670.668 10.7607 671.13 10.3173 671.718 10C672.315 9.67333 672.992 9.51 673.748 9.51C674.42 9.51 675.017 9.64533 675.54 9.916C676.072 10.1773 676.482 10.5693 676.772 11.092L675.75 11.75C675.507 11.386 675.208 11.12 674.854 10.952C674.508 10.7747 674.135 10.686 673.734 10.686C673.248 10.686 672.814 10.7933 672.432 11.008C672.049 11.2227 671.746 11.526 671.522 11.918C671.298 12.3007 671.186 12.758 671.186 13.29C671.186 13.822 671.298 14.284 671.522 14.676C671.746 15.068 672.049 15.3713 672.432 15.586C672.814 15.8007 673.248 15.908 673.734 15.908C674.135 15.908 674.508 15.824 674.854 15.656C675.208 15.4787 675.507 15.208 675.75 14.844L676.772 15.488C676.482 16.0013 676.072 16.398 675.54 16.678C675.017 16.9487 674.42 17.084 673.748 17.084ZM680.876 17.084C680.129 17.084 679.55 16.8833 679.14 16.482C678.729 16.0807 678.524 15.5067 678.524 14.76V7.956H679.868V14.704C679.868 15.1053 679.966 15.4133 680.162 15.628C680.367 15.8427 680.656 15.95 681.03 15.95C681.45 15.95 681.8 15.8333 682.08 15.6L682.5 16.566C682.294 16.7433 682.047 16.874 681.758 16.958C681.478 17.042 681.184 17.084 680.876 17.084ZM677.264 10.686V9.58H681.996V10.686H677.264ZM685.972 17.084C685.356 17.084 684.768 17 684.208 16.832C683.658 16.664 683.224 16.4587 682.906 16.216L683.466 15.152C683.784 15.3667 684.176 15.5487 684.642 15.698C685.109 15.8473 685.585 15.922 686.07 15.922C686.696 15.922 687.144 15.8333 687.414 15.656C687.694 15.4787 687.834 15.2313 687.834 14.914C687.834 14.6807 687.75 14.4987 687.582 14.368C687.414 14.2373 687.19 14.1393 686.91 14.074C686.64 14.0087 686.336 13.9527 686 13.906C685.664 13.85 685.328 13.7847 684.992 13.71C684.656 13.626 684.348 13.514 684.068 13.374C683.788 13.2247 683.564 13.024 683.396 12.772C683.228 12.5107 683.144 12.1653 683.144 11.736C683.144 11.288 683.27 10.896 683.522 10.56C683.774 10.224 684.129 9.96733 684.586 9.79C685.053 9.60333 685.604 9.51 686.238 9.51C686.724 9.51 687.214 9.57067 687.708 9.692C688.212 9.804 688.623 9.96733 688.94 10.182L688.366 11.246C688.03 11.022 687.68 10.868 687.316 10.784C686.952 10.7 686.588 10.658 686.224 10.658C685.636 10.658 685.198 10.756 684.908 10.952C684.619 11.1387 684.474 11.3813 684.474 11.68C684.474 11.932 684.558 12.128 684.726 12.268C684.904 12.3987 685.128 12.5013 685.398 12.576C685.678 12.6507 685.986 12.716 686.322 12.772C686.658 12.8187 686.994 12.884 687.33 12.968C687.666 13.0427 687.97 13.15 688.24 13.29C688.52 13.43 688.744 13.626 688.912 13.878C689.09 14.13 689.178 14.466 689.178 14.886C689.178 15.334 689.048 15.7213 688.786 16.048C688.525 16.3747 688.156 16.6313 687.68 16.818C687.204 16.9953 686.635 17.084 685.972 17.084Z" fill="#111111"/>
<path d="M717.416 17V8.418H714.056V7.2H722.162V8.418H718.802V17H717.416ZM725.623 17.084C724.877 17.084 724.214 16.9207 723.635 16.594C723.057 16.2673 722.599 15.8193 722.263 15.25C721.927 14.6713 721.759 14.018 721.759 13.29C721.759 12.5527 721.927 11.8993 722.263 11.33C722.599 10.7607 723.057 10.3173 723.635 10C724.214 9.67333 724.877 9.51 725.623 9.51C726.361 9.51 727.019 9.67333 727.597 10C728.185 10.3173 728.643 10.7607 728.969 11.33C729.305 11.89 729.473 12.5433 729.473 13.29C729.473 14.0273 729.305 14.6807 728.969 15.25C728.643 15.8193 728.185 16.2673 727.597 16.594C727.019 16.9207 726.361 17.084 725.623 17.084ZM725.623 15.908C726.099 15.908 726.524 15.8007 726.897 15.586C727.28 15.3713 727.579 15.068 727.793 14.676C728.008 14.2747 728.115 13.8127 728.115 13.29C728.115 12.758 728.008 12.3007 727.793 11.918C727.579 11.526 727.28 11.2227 726.897 11.008C726.524 10.7933 726.099 10.686 725.623 10.686C725.147 10.686 724.723 10.7933 724.349 11.008C723.976 11.2227 723.677 11.526 723.453 11.918C723.229 12.3007 723.117 12.758 723.117 13.29C723.117 13.8127 723.229 14.2747 723.453 14.676C723.677 15.068 723.976 15.3713 724.349 15.586C724.723 15.8007 725.147 15.908 725.623 15.908ZM734.986 17.084C734.37 17.084 733.805 16.944 733.292 16.664C732.788 16.3747 732.382 15.95 732.074 15.39C731.775 14.83 731.626 14.13 731.626 13.29C731.626 12.45 731.771 11.75 732.06 11.19C732.359 10.63 732.76 10.21 733.264 9.93C733.777 9.65 734.351 9.51 734.986 9.51C735.714 9.51 736.358 9.66867 736.918 9.986C737.478 10.3033 737.921 10.7467 738.248 11.316C738.575 11.876 738.738 12.534 738.738 13.29C738.738 14.046 738.575 14.7087 738.248 15.278C737.921 15.8473 737.478 16.2907 736.918 16.608C736.358 16.9253 735.714 17.084 734.986 17.084ZM731.052 19.716V9.58H732.34V11.582L732.256 13.304L732.396 15.026V19.716H731.052ZM734.874 15.908C735.35 15.908 735.775 15.8007 736.148 15.586C736.531 15.3713 736.829 15.068 737.044 14.676C737.268 14.2747 737.38 13.8127 737.38 13.29C737.38 12.758 737.268 12.3007 737.044 11.918C736.829 11.526 736.531 11.2227 736.148 11.008C735.775 10.7933 735.35 10.686 734.874 10.686C734.407 10.686 733.983 10.7933 733.6 11.008C733.227 11.2227 732.928 11.526 732.704 11.918C732.489 12.3007 732.382 12.758 732.382 13.29C732.382 13.8127 732.489 14.2747 732.704 14.676C732.928 15.068 733.227 15.3713 733.6 15.586C733.983 15.8007 734.407 15.908 734.874 15.908ZM745.923 17.084C745.307 17.084 744.719 17 744.159 16.832C743.608 16.664 743.174 16.4587 742.857 16.216L743.417 15.152C743.734 15.3667 744.126 15.5487 744.593 15.698C745.059 15.8473 745.535 15.922 746.021 15.922C746.646 15.922 747.094 15.8333 747.365 15.656C747.645 15.4787 747.785 15.2313 747.785 14.914C747.785 14.6807 747.701 14.4987 747.533 14.368C747.365 14.2373 747.141 14.1393 746.861 14.074C746.59 14.0087 746.287 13.9527 745.951 13.906C745.615 13.85 745.279 13.7847 744.943 13.71C744.607 13.626 744.299 13.514 744.019 13.374C743.739 13.2247 743.515 13.024 743.347 12.772C743.179 12.5107 743.095 12.1653 743.095 11.736C743.095 11.288 743.221 10.896 743.473 10.56C743.725 10.224 744.079 9.96733 744.537 9.79C745.003 9.60333 745.554 9.51 746.189 9.51C746.674 9.51 747.164 9.57067 747.659 9.692C748.163 9.804 748.573 9.96733 748.891 10.182L748.317 11.246C747.981 11.022 747.631 10.868 747.267 10.784C746.903 10.7 746.539 10.658 746.175 10.658C745.587 10.658 745.148 10.756 744.859 10.952C744.569 11.1387 744.425 11.3813 744.425 11.68C744.425 11.932 744.509 12.128 744.677 12.268C744.854 12.3987 745.078 12.5013 745.349 12.576C745.629 12.6507 745.937 12.716 746.273 12.772C746.609 12.8187 746.945 12.884 747.281 12.968C747.617 13.0427 747.92 13.15 748.191 13.29C748.471 13.43 748.695 13.626 748.863 13.878C749.04 14.13 749.129 14.466 749.129 14.886C749.129 15.334 748.998 15.7213 748.737 16.048C748.475 16.3747 748.107 16.6313 747.631 16.818C747.155 16.9953 746.585 17.084 745.923 17.084ZM753.832 17.084C753.039 17.084 752.339 16.9207 751.732 16.594C751.135 16.2673 750.668 15.8193 750.332 15.25C750.006 14.6807 749.842 14.0273 749.842 13.29C749.842 12.5527 750.001 11.8993 750.318 11.33C750.645 10.7607 751.088 10.3173 751.648 10C752.218 9.67333 752.857 9.51 753.566 9.51C754.285 9.51 754.92 9.66867 755.47 9.986C756.021 10.3033 756.45 10.7513 756.758 11.33C757.076 11.8993 757.234 12.5667 757.234 13.332C757.234 13.388 757.23 13.4533 757.22 13.528C757.22 13.6027 757.216 13.6727 757.206 13.738H750.892V12.772H756.506L755.96 13.108C755.97 12.632 755.872 12.2073 755.666 11.834C755.461 11.4607 755.176 11.1713 754.812 10.966C754.458 10.7513 754.042 10.644 753.566 10.644C753.1 10.644 752.684 10.7513 752.32 10.966C751.956 11.1713 751.672 11.4653 751.466 11.848C751.261 12.2213 751.158 12.6507 751.158 13.136V13.36C751.158 13.8547 751.27 14.298 751.494 14.69C751.728 15.0727 752.05 15.3713 752.46 15.586C752.871 15.8007 753.342 15.908 753.874 15.908C754.313 15.908 754.71 15.8333 755.064 15.684C755.428 15.5347 755.746 15.3107 756.016 15.012L756.758 15.88C756.422 16.272 756.002 16.5707 755.498 16.776C755.004 16.9813 754.448 17.084 753.832 17.084ZM758.821 17V6.612H760.165V17H758.821ZM762.451 17V6.612H763.795V17H762.451ZM769.385 17.084C768.592 17.084 767.892 16.9207 767.285 16.594C766.688 16.2673 766.221 15.8193 765.885 15.25C765.558 14.6807 765.395 14.0273 765.395 13.29C765.395 12.5527 765.554 11.8993 765.871 11.33C766.198 10.7607 766.641 10.3173 767.201 10C767.77 9.67333 768.41 9.51 769.119 9.51C769.838 9.51 770.472 9.66867 771.023 9.986C771.574 10.3033 772.003 10.7513 772.311 11.33C772.628 11.8993 772.787 12.5667 772.787 13.332C772.787 13.388 772.782 13.4533 772.773 13.528C772.773 13.6027 772.768 13.6727 772.759 13.738H766.445V12.772H772.059L771.513 13.108C771.522 12.632 771.424 12.2073 771.219 11.834C771.014 11.4607 770.729 11.1713 770.365 10.966C770.01 10.7513 769.595 10.644 769.119 10.644C768.652 10.644 768.237 10.7513 767.873 10.966C767.509 11.1713 767.224 11.4653 767.019 11.848C766.814 12.2213 766.711 12.6507 766.711 13.136V13.36C766.711 13.8547 766.823 14.298 767.047 14.69C767.28 15.0727 767.602 15.3713 768.013 15.586C768.424 15.8007 768.895 15.908 769.427 15.908C769.866 15.908 770.262 15.8333 770.617 15.684C770.981 15.5347 771.298 15.3107 771.569 15.012L772.311 15.88C771.975 16.272 771.555 16.5707 771.051 16.776C770.556 16.9813 770.001 17.084 769.385 17.084ZM774.373 17V9.58H775.661V11.596L775.535 11.092C775.74 10.5787 776.086 10.1867 776.571 9.916C777.056 9.64533 777.654 9.51 778.363 9.51V10.812C778.307 10.8027 778.251 10.798 778.195 10.798C778.148 10.798 778.102 10.798 778.055 10.798C777.336 10.798 776.767 11.0127 776.347 11.442C775.927 11.8713 775.717 12.492 775.717 13.304V17H774.373ZM781.95 17.084C781.334 17.084 780.746 17 780.186 16.832C779.635 16.664 779.201 16.4587 778.884 16.216L779.444 15.152C779.761 15.3667 780.153 15.5487 780.62 15.698C781.086 15.8473 781.562 15.922 782.048 15.922C782.673 15.922 783.121 15.8333 783.392 15.656C783.672 15.4787 783.812 15.2313 783.812 14.914C783.812 14.6807 783.728 14.4987 783.56 14.368C783.392 14.2373 783.168 14.1393 782.888 14.074C782.617 14.0087 782.314 13.9527 781.978 13.906C781.642 13.85 781.306 13.7847 780.97 13.71C780.634 13.626 780.326 13.514 780.046 13.374C779.766 13.2247 779.542 13.024 779.374 12.772C779.206 12.5107 779.122 12.1653 779.122 11.736C779.122 11.288 779.248 10.896 779.5 10.56C779.752 10.224 780.106 9.96733 780.564 9.79C781.03 9.60333 781.581 9.51 782.216 9.51C782.701 9.51 783.191 9.57067 783.686 9.692C784.19 9.804 784.6 9.96733 784.918 10.182L784.344 11.246C784.008 11.022 783.658 10.868 783.294 10.784C782.93 10.7 782.566 10.658 782.202 10.658C781.614 10.658 781.175 10.756 780.886 10.952C780.596 11.1387 780.452 11.3813 780.452 11.68C780.452 11.932 780.536 12.128 780.704 12.268C780.881 12.3987 781.105 12.5013 781.376 12.576C781.656 12.6507 781.964 12.716 782.3 12.772C782.636 12.8187 782.972 12.884 783.308 12.968C783.644 13.0427 783.947 13.15 784.218 13.29C784.498 13.43 784.722 13.626 784.89 13.878C785.067 14.13 785.156 14.466 785.156 14.886C785.156 15.334 785.025 15.7213 784.764 16.048C784.502 16.3747 784.134 16.6313 783.658 16.818C783.182 16.9953 782.612 17.084 781.95 17.084Z" fill="#111111"/>
<path d="M815.852 17.112C815.105 17.112 814.415 16.9907 813.78 16.748C813.155 16.496 812.609 16.146 812.142 15.698C811.685 15.2407 811.325 14.7087 811.064 14.102C810.803 13.4953 810.672 12.828 810.672 12.1C810.672 11.372 810.803 10.7047 811.064 10.098C811.325 9.49133 811.689 8.964 812.156 8.516C812.623 8.05867 813.169 7.70867 813.794 7.466C814.429 7.214 815.119 7.088 815.866 7.088C816.622 7.088 817.317 7.21867 817.952 7.48C818.596 7.732 819.142 8.11 819.59 8.614L818.68 9.496C818.307 9.104 817.887 8.81467 817.42 8.628C816.953 8.432 816.454 8.334 815.922 8.334C815.371 8.334 814.858 8.42733 814.382 8.614C813.915 8.80067 813.509 9.062 813.164 9.398C812.819 9.734 812.548 10.1353 812.352 10.602C812.165 11.0593 812.072 11.5587 812.072 12.1C812.072 12.6413 812.165 13.1453 812.352 13.612C812.548 14.0693 812.819 14.466 813.164 14.802C813.509 15.138 813.915 15.3993 814.382 15.586C814.858 15.7727 815.371 15.866 815.922 15.866C816.454 15.866 816.953 15.7727 817.42 15.586C817.887 15.39 818.307 15.0913 818.68 14.69L819.59 15.572C819.142 16.076 818.596 16.4587 817.952 16.72C817.317 16.9813 816.617 17.112 815.852 17.112ZM825.073 9.51C825.68 9.51 826.212 9.62667 826.669 9.86C827.136 10.0933 827.5 10.448 827.761 10.924C828.023 11.4 828.153 12.002 828.153 12.73V17H826.809V12.884C826.809 12.1653 826.632 11.624 826.277 11.26C825.932 10.896 825.442 10.714 824.807 10.714C824.331 10.714 823.916 10.8073 823.561 10.994C823.207 11.1807 822.931 11.456 822.735 11.82C822.549 12.184 822.455 12.6367 822.455 13.178V17H821.111V6.612H822.455V11.582L822.189 11.05C822.432 10.5647 822.805 10.1867 823.309 9.916C823.813 9.64533 824.401 9.51 825.073 9.51ZM833.538 17.084C832.792 17.084 832.129 16.9207 831.55 16.594C830.972 16.2673 830.514 15.8193 830.178 15.25C829.842 14.6713 829.674 14.018 829.674 13.29C829.674 12.5527 829.842 11.8993 830.178 11.33C830.514 10.7607 830.972 10.3173 831.55 10C832.129 9.67333 832.792 9.51 833.538 9.51C834.276 9.51 834.934 9.67333 835.512 10C836.1 10.3173 836.558 10.7607 836.884 11.33C837.22 11.89 837.388 12.5433 837.388 13.29C837.388 14.0273 837.22 14.6807 836.884 15.25C836.558 15.8193 836.1 16.2673 835.512 16.594C834.934 16.9207 834.276 17.084 833.538 17.084ZM833.538 15.908C834.014 15.908 834.439 15.8007 834.812 15.586C835.195 15.3713 835.494 15.068 835.708 14.676C835.923 14.2747 836.03 13.8127 836.03 13.29C836.03 12.758 835.923 12.3007 835.708 11.918C835.494 11.526 835.195 11.2227 834.812 11.008C834.439 10.7933 834.014 10.686 833.538 10.686C833.062 10.686 832.638 10.7933 832.264 11.008C831.891 11.2227 831.592 11.526 831.368 11.918C831.144 12.3007 831.032 12.758 831.032 13.29C831.032 13.8127 831.144 14.2747 831.368 14.676C831.592 15.068 831.891 15.3713 832.264 15.586C832.638 15.8007 833.062 15.908 833.538 15.908ZM842.201 17.084C841.445 17.084 840.769 16.9207 840.171 16.594C839.583 16.2673 839.121 15.8193 838.785 15.25C838.449 14.6807 838.281 14.0273 838.281 13.29C838.281 12.5527 838.449 11.8993 838.785 11.33C839.121 10.7607 839.583 10.3173 840.171 10C840.769 9.67333 841.445 9.51 842.201 9.51C842.873 9.51 843.471 9.64533 843.993 9.916C844.525 10.1773 844.936 10.5693 845.225 11.092L844.203 11.75C843.961 11.386 843.662 11.12 843.307 10.952C842.962 10.7747 842.589 10.686 842.187 10.686C841.702 10.686 841.268 10.7933 840.885 11.008C840.503 11.2227 840.199 11.526 839.975 11.918C839.751 12.3007 839.639 12.758 839.639 13.29C839.639 13.822 839.751 14.284 839.975 14.676C840.199 15.068 840.503 15.3713 840.885 15.586C841.268 15.8007 841.702 15.908 842.187 15.908C842.589 15.908 842.962 15.824 843.307 15.656C843.662 15.4787 843.961 15.208 844.203 14.844L845.225 15.488C844.936 16.0013 844.525 16.398 843.993 16.678C843.471 16.9487 842.873 17.084 842.201 17.084ZM849.754 17.084C849.007 17.084 848.345 16.9207 847.766 16.594C847.187 16.2673 846.73 15.8193 846.394 15.25C846.058 14.6713 845.89 14.018 845.89 13.29C845.89 12.5527 846.058 11.8993 846.394 11.33C846.73 10.7607 847.187 10.3173 847.766 10C848.345 9.67333 849.007 9.51 849.754 9.51C850.491 9.51 851.149 9.67333 851.728 10C852.316 10.3173 852.773 10.7607 853.1 11.33C853.436 11.89 853.604 12.5433 853.604 13.29C853.604 14.0273 853.436 14.6807 853.1 15.25C852.773 15.8193 852.316 16.2673 851.728 16.594C851.149 16.9207 850.491 17.084 849.754 17.084ZM849.754 15.908C850.23 15.908 850.655 15.8007 851.028 15.586C851.411 15.3713 851.709 15.068 851.924 14.676C852.139 14.2747 852.246 13.8127 852.246 13.29C852.246 12.758 852.139 12.3007 851.924 11.918C851.709 11.526 851.411 11.2227 851.028 11.008C850.655 10.7933 850.23 10.686 849.754 10.686C849.278 10.686 848.853 10.7933 848.48 11.008C848.107 11.2227 847.808 11.526 847.584 11.918C847.36 12.3007 847.248 12.758 847.248 13.29C847.248 13.8127 847.36 14.2747 847.584 14.676C847.808 15.068 848.107 15.3713 848.48 15.586C848.853 15.8007 849.278 15.908 849.754 15.908ZM855.183 17V6.612H856.527V17H855.183ZM863.419 17V15.432L863.349 15.138V12.464C863.349 11.8947 863.181 11.456 862.845 11.148C862.518 10.8307 862.023 10.672 861.361 10.672C860.922 10.672 860.493 10.7467 860.073 10.896C859.653 11.036 859.298 11.2273 859.009 11.47L858.449 10.462C858.831 10.154 859.289 9.92067 859.821 9.762C860.362 9.594 860.927 9.51 861.515 9.51C862.532 9.51 863.316 9.75733 863.867 10.252C864.417 10.7467 864.693 11.5027 864.693 12.52V17H863.419ZM860.983 17.084C860.432 17.084 859.947 16.9907 859.527 16.804C859.116 16.6173 858.799 16.3607 858.575 16.034C858.351 15.698 858.239 15.32 858.239 14.9C858.239 14.4987 858.332 14.1347 858.519 13.808C858.715 13.4813 859.027 13.22 859.457 13.024C859.895 12.828 860.483 12.73 861.221 12.73H863.573V13.696H861.277C860.605 13.696 860.152 13.808 859.919 14.032C859.685 14.256 859.569 14.5267 859.569 14.844C859.569 15.208 859.713 15.502 860.003 15.726C860.292 15.9407 860.693 16.048 861.207 16.048C861.711 16.048 862.149 15.936 862.523 15.712C862.905 15.488 863.181 15.1613 863.349 14.732L863.615 15.656C863.437 16.0947 863.125 16.4447 862.677 16.706C862.229 16.958 861.664 17.084 860.983 17.084ZM869.448 17.084C868.701 17.084 868.123 16.8833 867.712 16.482C867.301 16.0807 867.096 15.5067 867.096 14.76V7.956H868.44V14.704C868.44 15.1053 868.538 15.4133 868.734 15.628C868.939 15.8427 869.229 15.95 869.602 15.95C870.022 15.95 870.372 15.8333 870.652 15.6L871.072 16.566C870.867 16.7433 870.619 16.874 870.33 16.958C870.05 17.042 869.756 17.084 869.448 17.084ZM865.836 10.686V9.58H870.568V10.686H865.836ZM875.475 17.084C874.681 17.084 873.981 16.9207 873.375 16.594C872.777 16.2673 872.311 15.8193 871.975 15.25C871.648 14.6807 871.485 14.0273 871.485 13.29C871.485 12.5527 871.643 11.8993 871.961 11.33C872.287 10.7607 872.731 10.3173 873.291 10C873.86 9.67333 874.499 9.51 875.209 9.51C875.927 9.51 876.562 9.66867 877.113 9.986C877.663 10.3033 878.093 10.7513 878.401 11.33C878.718 11.8993 878.877 12.5667 878.877 13.332C878.877 13.388 878.872 13.4533 878.863 13.528C878.863 13.6027 878.858 13.6727 878.849 13.738H872.535V12.772H878.149L877.603 13.108C877.612 12.632 877.514 12.2073 877.309 11.834C877.103 11.4607 876.819 11.1713 876.455 10.966C876.1 10.7513 875.685 10.644 875.209 10.644C874.742 10.644 874.327 10.7513 873.963 10.966C873.599 11.1713 873.314 11.4653 873.109 11.848C872.903 12.2213 872.801 12.6507 872.801 13.136V13.36C872.801 13.8547 872.913 14.298 873.137 14.69C873.37 15.0727 873.692 15.3713 874.103 15.586C874.513 15.8007 874.985 15.908 875.517 15.908C875.955 15.908 876.352 15.8333 876.707 15.684C877.071 15.5347 877.388 15.3107 877.659 15.012L878.401 15.88C878.065 16.272 877.645 16.5707 877.141 16.776C876.646 16.9813 876.091 17.084 875.475 17.084ZM883.943 17V9.58H885.287V17H883.943ZM884.615 8.152C884.353 8.152 884.134 8.068 883.957 7.9C883.789 7.732 883.705 7.52667 883.705 7.284C883.705 7.032 883.789 6.822 883.957 6.654C884.134 6.486 884.353 6.402 884.615 6.402C884.876 6.402 885.091 6.486 885.259 6.654C885.436 6.81267 885.525 7.01333 885.525 7.256C885.525 7.508 885.441 7.72267 885.273 7.9C885.105 8.068 884.885 8.152 884.615 8.152ZM889.701 17.084C889.085 17.084 888.497 17 887.937 16.832C887.386 16.664 886.952 16.4587 886.635 16.216L887.195 15.152C887.512 15.3667 887.904 15.5487 888.371 15.698C888.838 15.8473 889.314 15.922 889.799 15.922C890.424 15.922 890.872 15.8333 891.143 15.656C891.423 15.4787 891.563 15.2313 891.563 14.914C891.563 14.6807 891.479 14.4987 891.311 14.368C891.143 14.2373 890.919 14.1393 890.639 14.074C890.368 14.0087 890.065 13.9527 889.729 13.906C889.393 13.85 889.057 13.7847 888.721 13.71C888.385 13.626 888.077 13.514 887.797 13.374C887.517 13.2247 887.293 13.024 887.125 12.772C886.957 12.5107 886.873 12.1653 886.873 11.736C886.873 11.288 886.999 10.896 887.251 10.56C887.503 10.224 887.858 9.96733 888.315 9.79C888.782 9.60333 889.332 9.51 889.967 9.51C890.452 9.51 890.942 9.57067 891.437 9.692C891.941 9.804 892.352 9.96733 892.669 10.182L892.095 11.246C891.759 11.022 891.409 10.868 891.045 10.784C890.681 10.7 890.317 10.658 889.953 10.658C889.365 10.658 888.926 10.756 888.637 10.952C888.348 11.1387 888.203 11.3813 888.203 11.68C888.203 11.932 888.287 12.128 888.455 12.268C888.632 12.3987 888.856 12.5013 889.127 12.576C889.407 12.6507 889.715 12.716 890.051 12.772C890.387 12.8187 890.723 12.884 891.059 12.968C891.395 13.0427 891.698 13.15 891.969 13.29C892.249 13.43 892.473 13.626 892.641 13.878C892.818 14.13 892.907 14.466 892.907 14.886C892.907 15.334 892.776 15.7213 892.515 16.048C892.254 16.3747 891.885 16.6313 891.409 16.818C890.933 16.9953 890.364 17.084 889.701 17.084ZM897.786 17V6.612H899.13V17H897.786ZM904.595 17.084C903.848 17.084 903.185 16.9207 902.607 16.594C902.028 16.2673 901.571 15.8193 901.235 15.25C900.899 14.6713 900.731 14.018 900.731 13.29C900.731 12.5527 900.899 11.8993 901.235 11.33C901.571 10.7607 902.028 10.3173 902.607 10C903.185 9.67333 903.848 9.51 904.595 9.51C905.332 9.51 905.99 9.67333 906.569 10C907.157 10.3173 907.614 10.7607 907.941 11.33C908.277 11.89 908.445 12.5433 908.445 13.29C908.445 14.0273 908.277 14.6807 907.941 15.25C907.614 15.8193 907.157 16.2673 906.569 16.594C905.99 16.9207 905.332 17.084 904.595 17.084ZM904.595 15.908C905.071 15.908 905.495 15.8007 905.869 15.586C906.251 15.3713 906.55 15.068 906.765 14.676C906.979 14.2747 907.087 13.8127 907.087 13.29C907.087 12.758 906.979 12.3007 906.765 11.918C906.55 11.526 906.251 11.2227 905.869 11.008C905.495 10.7933 905.071 10.686 904.595 10.686C904.119 10.686 903.694 10.7933 903.321 11.008C902.947 11.2227 902.649 11.526 902.425 11.918C902.201 12.3007 902.089 12.758 902.089 13.29C902.089 13.8127 902.201 14.2747 902.425 14.676C902.649 15.068 902.947 15.3713 903.321 15.586C903.694 15.8007 904.119 15.908 904.595 15.908ZM911.764 17L908.516 9.58H909.916L912.8 16.3H912.128L915.068 9.58H916.384L913.136 17H911.764ZM920.457 17.084C919.664 17.084 918.964 16.9207 918.357 16.594C917.76 16.2673 917.293 15.8193 916.957 15.25C916.631 14.6807 916.467 14.0273 916.467 13.29C916.467 12.5527 916.626 11.8993 916.943 11.33C917.27 10.7607 917.713 10.3173 918.273 10C918.843 9.67333 919.482 9.51 920.191 9.51C920.91 9.51 921.545 9.66867 922.095 9.986C922.646 10.3033 923.075 10.7513 923.383 11.33C923.701 11.8993 923.859 12.5667 923.859 13.332C923.859 13.388 923.855 13.4533 923.845 13.528C923.845 13.6027 923.841 13.6727 923.831 13.738H917.517V12.772H923.131L922.585 13.108C922.595 12.632 922.497 12.2073 922.291 11.834C922.086 11.4607 921.801 11.1713 921.437 10.966C921.083 10.7513 920.667 10.644 920.191 10.644C919.725 10.644 919.309 10.7513 918.945 10.966C918.581 11.1713 918.297 11.4653 918.091 11.848C917.886 12.2213 917.783 12.6507 917.783 13.136V13.36C917.783 13.8547 917.895 14.298 918.119 14.69C918.353 15.0727 918.675 15.3713 919.085 15.586C919.496 15.8007 919.967 15.908 920.499 15.908C920.938 15.908 921.335 15.8333 921.689 15.684C922.053 15.5347 922.371 15.3107 922.641 15.012L923.383 15.88C923.047 16.272 922.627 16.5707 922.123 16.776C921.629 16.9813 921.073 17.084 920.457 17.084ZM928.512 17.084C927.793 17.084 927.149 16.9253 926.58 16.608C926.02 16.2907 925.576 15.8473 925.25 15.278C924.923 14.7087 924.76 14.046 924.76 13.29C924.76 12.534 924.923 11.876 925.25 11.316C925.576 10.7467 926.02 10.3033 926.58 9.986C927.149 9.66867 927.793 9.51 928.512 9.51C929.137 9.51 929.702 9.65 930.206 9.93C930.71 10.21 931.111 10.63 931.41 11.19C931.718 11.75 931.872 12.45 931.872 13.29C931.872 14.13 931.722 14.83 931.424 15.39C931.134 15.95 930.738 16.3747 930.234 16.664C929.73 16.944 929.156 17.084 928.512 17.084ZM928.624 15.908C929.09 15.908 929.51 15.8007 929.884 15.586C930.266 15.3713 930.565 15.068 930.78 14.676C931.004 14.2747 931.116 13.8127 931.116 13.29C931.116 12.758 931.004 12.3007 930.78 11.918C930.565 11.526 930.266 11.2227 929.884 11.008C929.51 10.7933 929.09 10.686 928.624 10.686C928.148 10.686 927.723 10.7933 927.35 11.008C926.976 11.2227 926.678 11.526 926.454 11.918C926.23 12.3007 926.118 12.758 926.118 13.29C926.118 13.8127 926.23 14.2747 926.454 14.676C926.678 15.068 926.976 15.3713 927.35 15.586C927.723 15.8007 928.148 15.908 928.624 15.908ZM931.158 17V14.998L931.242 13.276L931.102 11.554V6.612H932.446V17H931.158Z" fill="#111111"/>
<path d="M1088 2H1078C1075.24 2 1073 4.23858 1073 7V17C1073 19.7614 1075.24 22 1078 22H1088C1090.76 22 1093 19.7614 1093 17V7C1093 4.23858 1090.76 2 1088 2Z" stroke="#111111" stroke-width="2" stroke-linecap="round" stroke-linejoin="round"/>
<path d="M1087 11.3701C1087.12 12.2023 1086.98 13.0523 1086.59 13.7991C1086.21 14.5459 1085.59 15.1515 1084.84 15.5297C1084.09 15.908 1083.24 16.0397 1082.41 15.906C1081.58 15.7723 1080.81 15.3801 1080.21 14.7852C1079.62 14.1903 1079.23 13.4229 1079.09 12.5923C1078.96 11.7616 1079.09 10.91 1079.47 10.1584C1079.85 9.40691 1080.45 8.7938 1081.2 8.4063C1081.95 8.0188 1082.8 7.87665 1083.63 8.00006C1084.48 8.12594 1085.26 8.52152 1085.87 9.12836C1086.48 9.73521 1086.87 10.5211 1087 11.3701Z" stroke="#111111" stroke-width="2" stroke-linecap="round" stroke-linejoin="round"/>
<path d="M1087 11.3701C1087.12 12.2023 1086.98 13.0523 1086.59 13.7991C1086.21 14.5459 1085.59 15.1515 1084.84 15.5297C1084.09 15.908 1083.24 16.0397 1082.41 15.906C1081.58 15.7723 1080.81 15.3801 1080.21 14.7852C1079.62 14.1903 1079.23 13.4229 1079.09 12.5923C1078.96 11.7616 1079.09 10.91 1079.47 10.1584C1079.85 9.40691 1080.45 8.7938 1081.2 8.4063C1081.95 8.0188 1082.8 7.87665 1083.63 8.00006C1084.48 8.12594 1085.26 8.52152 1085.87 9.12836C1086.48 9.73521 1086.87 10.5211 1087 11.3701Z" stroke="#111111" stroke-width="2" stroke-linecap="round" stroke-linejoin="round"/>
<path d="M1088.5 6.5H1088.51" stroke="#111111" stroke-width="2" stroke-linecap="round" stroke-linejoin="round"/>
<path d="M1088.5 6.5H1088.51" stroke="#111111" stroke-width="2" stroke-linecap="round" stroke-linejoin="round"/>
<path d="M1136 3.00005C1135.04 3.67552 1133.98 4.19216 1132.86 4.53005C1132.26 3.83756 1131.46 3.34674 1130.57 3.12397C1129.68 2.90121 1128.74 2.95724 1127.88 3.2845C1127.02 3.61176 1126.29 4.19445 1125.77 4.95376C1125.26 5.71308 1124.99 6.61238 1125 7.53005V8.53005C1123.24 8.57561 1121.5 8.18586 1119.93 7.39549C1118.36 6.60513 1116.51 4.72313 1115.5 3.2845C1115.5 3.2845 1112 13 1121 17C1118.94 18.398 1116.49 19.099 1114 19C1123 24 1134 19 1134 7.50005C1134 7.2215 1133.97 6.94364 1133.92 6.67005C1134.94 5.66354 1135.66 4.39276 1136 3.00005Z" stroke="#111111" stroke-width="2" stroke-linecap="round" stroke-linejoin="round"/>
</svg>
